# xmcd
#
# Track frame offsets:
#	150
#	15931
#	34065
#	53752
#	72334
#	89661
#	101637
#	113862
#	128892
#	144061
#	157618
#	175262
#	195012
#
# Disc length: 2789 seconds
#
# Revision: 1
# Processed by: cddbd v1.4PL0 Copyright (c) Steve Scherf et al.
# Submitted via: dBpowerAMP V4.0
#
DISCID=990ae30d
DTITLE=Pedro Luis e a Parede - É tudo 1 real
DYEAR=2000
DGENRE=Mangue Beat
TTITLE0=Rap do Real
TTITLE1=Menina Bonita
TTITLE2=Cidade em Movimento
TTITLE3=Mapa da Mina
TTITLE4=Aê Meu primo
TTITLE5=Brasileiro em Tóquio
TTITLE6=Ôba
TTITLE7=Vida de cão
TTITLE8=500
TTITLE9=Astronauta Tupy
TTITLE10=Quebra-quilos
TTITLE11=Mergulho Marítmo
TTITLE12=Moto Boy
EXTD=
EXTT0=
EXTT1=
EXTT2=
EXTT3=
EXTT4=
EXTT5=
EXTT6=
EXTT7=
EXTT8=
EXTT9=
EXTT10=
EXTT11=
EXTT12=
PLAYORDER=
